REM DIRINDEX 1\2\6,1\2\7,1\2\8,1\2\9,1\3\10,1\3\11,1\4\12,1\4\13,1\4\14,1\5\15,1\5\16,1\5\17
REM DIRNAME cjc020,folder01,folder02,folder03,folder04,folder05,folder06,folder07,folder08,folder09,folder10,folder11,folder12,folder13,folder14,folder15,folder16
TITLE ""
FILE "1900_2_sec12_1101_1115.mp3" MP3
  TRACK 01 AUDIO
    TITLE "0:"
    INDEX 01 00:00:00
  TRACK 02 AUDIO
    TITLE "12:cjc020_4332"
    INDEX 01 00:03:23
  TRACK 03 AUDIO
    TITLE "0:"
    INDEX 01 00:04:74
  TRACK 04 AUDIO
    TITLE "12:cjc020_4333"
    INDEX 01 00:05:46
  TRACK 05 AUDIO
    TITLE "0:"
    INDEX 01 00:06:69
  TRACK 06 AUDIO
    TITLE "13:cjc020_4334"
    INDEX 01 00:07:70
  TRACK 07 AUDIO
    TITLE "0:"
    INDEX 01 00:09:06
  TRACK 08 AUDIO
    TITLE "14:cjc020_4335"
    INDEX 01 00:09:08
  TRACK 09 AUDIO
    TITLE "0:"
    INDEX 01 00:11:54
  TRACK 10 AUDIO
    TITLE "13:cjc020_4336"
    INDEX 01 00:12:34
  TRACK 11 AUDIO
    TITLE "0:"
    INDEX 01 00:13:61
  TRACK 12 AUDIO
    TITLE "14:cjc020_4337"
    INDEX 01 00:13:67
  TRACK 13 AUDIO
    TITLE "0:"
    INDEX 01 00:16:26
  TRACK 14 AUDIO
    TITLE "13:cjc020_4338"
    INDEX 01 00:17:06
  TRACK 15 AUDIO
    TITLE "0:"
    INDEX 01 00:18:09
  TRACK 16 AUDIO
    TITLE "14:cjc020_4339"
    INDEX 01 00:18:11
  TRACK 17 AUDIO
    TITLE "0:"
    INDEX 01 00:20:73
  TRACK 18 AUDIO
    TITLE "13:cjc020_4340"
    INDEX 01 00:21:60
  TRACK 19 AUDIO
    TITLE "0:"
    INDEX 01 00:23:24
  TRACK 20 AUDIO
    TITLE "14:cjc020_4341"
    INDEX 01 00:23:26
  TRACK 21 AUDIO
    TITLE "0:"
    INDEX 01 00:25:74
  TRACK 22 AUDIO
    TITLE "13:cjc020_4342"
    INDEX 01 00:26:52
  TRACK 23 AUDIO
    TITLE "0:"
    INDEX 01 00:28:06
  TRACK 24 AUDIO
    TITLE "14:cjc020_4343"
    INDEX 01 00:28:10
  TRACK 25 AUDIO
    TITLE "0:"
    INDEX 01 00:30:14
  TRACK 26 AUDIO
    TITLE "13:cjc020_4344"
    INDEX 01 00:30:71
  TRACK 27 AUDIO
    TITLE "0:"
    INDEX 01 00:32:11
  TRACK 28 AUDIO
    TITLE "14:cjc020_4345"
    INDEX 01 00:32:15
  TRACK 29 AUDIO
    TITLE "0:"
    INDEX 01 00:36:09
  TRACK 30 AUDIO
    TITLE "13:cjc020_4346"
    INDEX 01 00:36:60
  TRACK 31 AUDIO
    TITLE "0:"
    INDEX 01 00:37:63
  TRACK 32 AUDIO
    TITLE "14:cjc020_4347"
    INDEX 01 00:37:67
  TRACK 33 AUDIO
    TITLE "0:"
    INDEX 01 00:41:18
  TRACK 34 AUDIO
    TITLE "13:cjc020_4348"
    INDEX 01 00:41:71
  TRACK 35 AUDIO
    TITLE "0:"
    INDEX 01 00:43:11
  TRACK 36 AUDIO
    TITLE "14:cjc020_4349"
    INDEX 01 00:43:13
  TRACK 37 AUDIO
    TITLE "0:"
    INDEX 01 00:46:06
  TRACK 38 AUDIO
    TITLE "13:cjc020_4350"
    INDEX 01 00:46:60
  TRACK 39 AUDIO
    TITLE "0:"
    INDEX 01 00:48:12
  TRACK 40 AUDIO
    TITLE "14:cjc020_4351"
    INDEX 01 00:48:18
  TRACK 41 AUDIO
    TITLE "0:"
    INDEX 01 00:51:26
  TRACK 42 AUDIO
    TITLE "13:cjc020_4352"
    INDEX 01 00:52:08
  TRACK 43 AUDIO
    TITLE "0:"
    INDEX 01 00:53:13
  TRACK 44 AUDIO
    TITLE "14:cjc020_4353"
    INDEX 01 00:53:17
  TRACK 45 AUDIO
    TITLE "0:"
    INDEX 01 00:55:48
  TRACK 46 AUDIO
    TITLE "13:cjc020_4354"
    INDEX 01 00:56:33
  TRACK 47 AUDIO
    TITLE "0:"
    INDEX 01 00:57:60
  TRACK 48 AUDIO
    TITLE "14:cjc020_4355"
    INDEX 01 00:57:64
  TRACK 49 AUDIO
    TITLE "0:"
    INDEX 01 01:02:28
  TRACK 50 AUDIO
    TITLE "13:cjc020_4356"
    INDEX 01 01:03:08
  TRACK 51 AUDIO
    TITLE "0:"
    INDEX 01 01:04:31
  TRACK 52 AUDIO
    TITLE "14:cjc020_4357"
    INDEX 01 01:04:33
  TRACK 53 AUDIO
    TITLE "0:"
    INDEX 01 01:06:61
  TRACK 54 AUDIO
    TITLE "13:cjc020_4358"
    INDEX 01 01:07:43
  TRACK 55 AUDIO
    TITLE "0:"
    INDEX 01 01:08:48
  TRACK 56 AUDIO
    TITLE "14:cjc020_4359"
    INDEX 01 01:08:54
  TRACK 57 AUDIO
    TITLE "0:"
    INDEX 01 01:10:69
  TRACK 58 AUDIO
    TITLE "13:cjc020_4360"
    INDEX 01 01:11:52
  TRACK 59 AUDIO
    TITLE "0:"
    INDEX 01 01:12:71
  TRACK 60 AUDIO
    TITLE "14:cjc020_4361"
    INDEX 01 01:13:00
  TRACK 61 AUDIO
    TITLE "0:"
    INDEX 01 01:15:13
  TRACK 62 AUDIO
    TITLE "13:cjc020_4362"
    INDEX 01 01:15:68
  TRACK 63 AUDIO
    TITLE "0:"
    INDEX 01 01:17:08
  TRACK 64 AUDIO
    TITLE "14:cjc020_4363"
    INDEX 01 01:17:12
  TRACK 65 AUDIO
    TITLE "0:"
    INDEX 01 01:19:15
